# xmcd
#
# Track frame offsets:
# 150
# 11852
# 24228
# 38629
# 47195
# 56042
# 68429
# 80653
# 92517
# 104432
# 115832
# 124981
# 137018
# 156267
# 171830
# 183247
# 194282
# 201313
# 212851
# 223204
# 235106
# 245516
#
# Disc length: 3522 seconds
#
#
# Revision: 0
# Processed by: cddbd v1.5.1PL0 Copyright (c) Steve Scherf et al.
# Submitted via: FreeRIP 2.92 
#
DISCID=3d0dc016
DTITLE=Western - Western
DYEAR=1900
DGENRE=Country
TTITLE0=Le Bleu de Lete
TTITLE1=The good, the bad and the ugly
TTITLE2=Un Homme, Un Cheval et un Pistolet
TTITLE3=Johnny Guitar
TTITLE4=OK Corral
TTITLE5=Les ames Fieres
TTITLE6=Les sept Mercenaires
TTITLE7=Rio Bravo
TTITLE8=The man with the harmonica
TTITLE9=Per uno pugno di dollari
TTITLE10=Vera Cruz
TTITLE11=Si Toi aussi tu m'abandonnes
TTITLE12=Il Etait une fois une revolution
TTITLE13=Apres L'explosion
TTITLE14=the big country
TTITLE15=a fistful of dollars
TTITLE16=la conquete de l'oest
TTITLE17=3.H.10 out yuma
TTITLE18=bonanza
TTITLE19=et pour quelques dollars de plus
TTITLE20=sixty seconds to what
TTITLE21=toute la pluie tombe sur moi
EXTD=
EXTT0=
EXTT1=
EXTT2=
EXTT3=
EXTT4=
EXTT5=
EXTT6=
EXTT7=
EXTT8=
EXTT9=
EXTT10=
EXTT11=
EXTT12=
EXTT13=
EXTT14=
EXTT15=
EXTT16=
EXTT17=
EXTT18=
EXTT19=
EXTT20=
EXTT21=
PLAYORDER=
